PathFileType	4	(X/Y/Z)	C:/Users/opensim2020/Desktop/walking_exp_matlab/subject03_walking04_straight_04.trc	
DataRate	CameraRate	NumFrames	NumMarkers	Units	OrigDataRate	OrigDataStartFrame	OrigNumFrames	
100.00	100.00	4	51	mm	100.00	3099	293	
Frame#	Time	LFHD			RFHD			LBHD			RBHD			C7			T10			CLAV			STRN			RBAK			LSHO			LUPA			LELB			LFRM			LWRA			LWRB			LFIN			RSHO			RUPA			RELB			RFRM			RWRA			RWRB			RFIN			LASI			RASI			LPSI			RPSI			LTHI			LKNE			LTIB			LANK			LHEE			LTOE			RTHI			RKNE			RTIB			RANK			RHEE			RTOE			*39			*40			*41			*42			*43			*44			*45			*46			*47			*48			*49			*50			
		X1	Y1	Z1	X2	Y2	Z2	X3	Y3	Z3	X4	Y4	Z4	X5	Y5	Z5	X6	Y6	Z6	X7	Y7	Z7	X8	Y8	Z8	X9	Y9	Z9	X10	Y10	Z10	X11	Y11	Z11	X12	Y12	Z12	X13	Y13	Z13	X14	Y14	Z14	X15	Y15	Z15	X16	Y16	Z16	X17	Y17	Z17	X18	Y18	Z18	X19	Y19	Z19	X20	Y20	Z20	X21	Y21	Z21	X22	Y22	Z22	X23	Y23	Z23	X24	Y24	Z24	X25	Y25	Z25	X26	Y26	Z26	X27	Y27	Z27	X28	Y28	Z28	X29	Y29	Z29	X30	Y30	Z30	X31	Y31	Z31	X32	Y32	Z32	X33	Y33	Z33	X34	Y34	Z34	X35	Y35	Z35	X36	Y36	Z36	X37	Y37	Z37	X38	Y38	Z38	X39	Y39	Z39	X40	Y40	Z40	X41	Y41	Z41	X42	Y42	Z42	X43	Y43	Z43	X44	Y44	Z44	X45	Y45	Z45	X46	Y46	Z46	X47	Y47	Z47	X48	Y48	Z48	X49	Y49	Z49	X50	Y50	Z50	X51	Y51	Z51	

74	0.730	1663.72375	854.91254	1631.09839	1532.31470	874.65125	1634.95300	1676.83838	976.50238	1571.70313	1546.95996	991.11627	1576.34265	1608.94824	1004.06024	1420.46533	1610.81421	1029.69983	1106.58398	1607.27271	877.05334	1349.73474	1616.57153	831.10327	1185.59387	1509.27820	1047.69421	1244.17920	1763.07837	920.89673	1387.55933	1836.51221	920.12018	1190.80554	1849.58594	904.23553	1068.45215	1849.66602	868.10382	943.41321	1820.10693	841.55444	826.76630	1872.15479	862.34991	831.15356	1863.51477	841.50873	749.23419	1448.43591	921.08160	1369.79333	1377.65540	888.32678	1148.53784	1367.97607	855.41742	1040.55652	1370.26672	817.14648	909.21277	1411.12036	776.96960	820.20209	1363.39075	800.67450	810.41028	1376.44824	766.61957	745.21063	1729.25110	856.11243	947.53882	1492.03601	853.97516	949.13226	1680.16260	1018.65900	960.96411	1530.56274	1015.78925	974.55951	1782.83679	840.55096	648.20300	1759.88000	783.32251	477.49664	1758.50269	912.66504	329.95871	1720.68408	1042.59460	167.60779	1681.43921	1097.14026	160.55788	1699.09619	945.16003	57.91354	1460.70386	908.05688	650.85089	1503.39075	900.64130	471.72571	1504.75989	951.92920	287.27518	1561.10657	986.19745	75.06273	1611.40918	1030.83459	44.13841	1577.37305	844.37646	37.25223	1625.81018	950.70923	1682.02515																																	 
75	0.740	1664.13928	846.49664	1630.88220	1532.69556	866.08954	1634.93433	1677.17102	968.28412	1571.61194	1547.03394	982.47925	1576.34546	1608.71021	995.61041	1420.42725	1610.10547	1021.51678	1106.52991	1607.36560	868.60718	1349.60535	1616.38513	822.41815	1185.53442	1508.32874	1038.81750	1244.30493	1763.15784	913.14783	1387.21863	1836.73157	914.68134	1190.32410	1850.11816	900.37061	1067.87976	1850.62683	865.30652	942.49725	1821.47314	839.41412	825.61768	1873.13025	860.96558	830.27057	1864.85999	840.38177	748.40894	1448.44836	911.99249	1370.15002	1377.13440	876.87311	1149.52747	1367.21313	842.60016	1042.11182	1369.75928	801.95599	911.52478	1411.06030	760.57874	823.15082	1363.14722	783.61462	813.06165	1376.53418	748.83362	748.59595	1728.61621	847.78546	947.73193	1491.49280	846.33527	948.63184	1680.15112	1010.45667	960.80377	1530.35693	1007.89038	974.25049	1781.77368	828.13727	649.49426	1757.70544	768.52313	479.79330	1757.02051	892.64197	327.00082	1719.67432	1016.04181	159.22368	1680.45093	1070.26257	148.96802	1698.26965	912.63794	55.45155	1461.01331	901.92700	650.40662	1502.95654	896.44708	471.48859	1504.67163	949.70789	287.35419	1561.24243	985.93219	75.58646	1611.64282	1030.25500	44.96663	1577.31128	844.26025	37.17689	1626.26208	942.34851	1682.28088																																	 
76	0.750	1664.55042	838.05969	1630.59290	1533.11450	857.54889	1634.83191	1677.14380	959.74829	1571.27771	1546.82776	973.63312	1576.12195	1608.43738	987.12164	1420.29614	1609.47827	1013.31830	1106.43799	1607.50195	860.20453	1349.43274	1616.30322	814.54871	1185.19482	1507.55054	1030.08459	1244.48621	1763.26038	905.48334	1386.82397	1836.89514	909.13458	1189.78198	1850.64990	896.39227	1067.16858	1851.62781	862.53107	941.53632	1822.88135	837.08057	824.46088	1874.14441	859.42072	829.26093	1866.40369	839.51398	747.25531	1448.56311	902.93616	1370.35181	1376.57996	865.49066	1150.40662	1366.41638	829.90216	1043.48108	1369.29480	786.76593	913.66486	1410.68640	743.67847	826.29669	1362.98218	766.70868	815.49548	1376.60229	730.54456	751.60706	1728.03955	839.23987	947.91357	1491.15381	838.99237	948.15936	1680.21777	1002.19604	960.63959	1530.28564	1000.12421	973.97723	1780.58472	815.56390	650.51520	1755.53870	754.33636	481.83060	1755.59705	872.93195	323.95450	1718.50293	988.81232	150.69031	1679.22668	1042.59546	137.26930	1697.61377	879.90991	52.83567	1460.66833	896.37854	650.06836	1502.72546	892.36810	471.15884	1504.67932	947.38177	287.43384	1561.34558	985.73676	75.84483	1611.78796	1030.12427	45.63412	1577.40820	843.94171	37.27570	1626.40454	933.60754	1681.64819																																	 
77	0.760	1665.03052	829.62494	1630.25964	1533.53333	848.93866	1634.75513	1677.34375	951.35413	1570.93237	1547.35742	965.29529	1576.09180	1608.21741	978.62683	1420.10083	1609.00159	1005.14355	1106.25342	1607.63171	851.69733	1349.25000	1616.18103	806.20844	1184.92273	1506.73071	1021.29724	1244.44739	1763.39233	897.67218	1386.31628	1837.14380	903.46960	1189.19409	1851.19421	892.31860	1066.48682	1852.65247	859.68085	940.52606	1824.32300	834.61755	823.37640	1875.06653	857.85596	828.22437	1867.66162	838.35278	746.15399	1448.57654	893.77081	1370.41736	1376.05505	854.27612	1151.15601	1365.71887	817.32373	1044.76306	1368.83521	771.94135	915.67151	1410.52368	727.18317	829.30621	1362.91016	750.09668	817.89014	1376.79663	712.89374	754.55151	1727.50330	830.74475	948.08997	1490.68188	831.33984	947.63757	1680.28064	993.92303	960.37036	1530.37451	992.55475	973.62323	1779.71545	803.81580	651.63770	1753.50574	741.02734	483.71799	1753.93323	853.53699	320.73792	1717.20129	961.14368	142.03436	1677.79126	1014.37811	125.74999	1697.33850	846.92426	50.72716	1460.11877	891.18945	649.83600	1502.52490	888.30927	470.79568	1504.65210	945.10413	287.52539	1561.39661	985.35864	76.47132	1611.93579	1029.97693	46.35396	1577.37585	843.90918	37.18251	1627.08960	925.38104	1681.86121																																	 
